<svg width="30" height="30" viewBox="0 0 30 30" fill="none" xmlns="http://www.w3.org/2000/svg">
<path d="M14.7879 13.5829L15 13.795L15.2121 13.5829L28.2453 0.549637C28.5782 0.216788 29.1175 0.216788 29.4504 0.549637C29.7832 0.882486 29.7832 1.4218 29.4504 1.75465L16.4172 14.7879L16.205 15L16.4172 15.2121L29.4504 28.2453C29.7832 28.5782 29.7832 29.1175 29.4504 29.4504C29.1175 29.7832 28.5782 29.7832 28.2453 29.4504L15.2121 16.4172L15 16.205L14.7879 16.4172L1.75465 29.4504C1.4218 29.7832 0.882486 29.7832 0.549637 29.4504C0.216788 29.1175 0.216788 28.5782 0.549637 28.2453L13.5829 15.2121L13.795 15L13.5829 14.7879L0.549637 1.75465C0.216788 1.4218 0.216788 0.882486 0.549637 0.549637C0.882486 0.216788 1.4218 0.216788 1.75465 0.549637L14.7879 13.5829Z" fill="#1B812C" stroke="white" stroke-width="0.6"/>
</svg>
