<svg width="21" height="14" viewBox="0 0 21 14" fill="none" xmlns="http://www.w3.org/2000/svg">
<mask id="path-1-inside-1_739_38" fill="white">
<path d="M20.36 0.501406C20.331 0.473476 20.2989 0.44899 20.2644 0.428519C19.9376 0.154571 19.5301 0.00344285 19.1089 0H1.8789C1.45765 0.00344343 1.05015 0.154571 0.72336 0.428519C0.688844 0.448989 0.656742 0.473475 0.627792 0.501406C0.2303 0.866412 0.00204276 1.38827 0 1.93692V12.0588C0 12.5728 0.19782 13.066 0.550025 13.4299C0.90224 13.7939 1.38029 13.9988 1.87891 14H19.1046C19.606 14.0034 20.0883 13.8004 20.444 13.436C20.8 13.0715 21 12.5759 21 12.0588V1.93692C20.9948 1.38636 20.7621 0.864105 20.36 0.501406ZM19.1129 0.857038C19.1738 0.850725 19.235 0.850725 19.2959 0.857038L11.2859 7.93617C11.0463 8.0873 10.7708 8.16727 10.49 8.16727C10.209 8.16727 9.93347 8.08731 9.69389 7.93617L1.69625 0.874179C1.75712 0.867866 1.81836 0.867866 1.87923 0.874179L19.1129 0.857038ZM20.1689 12.0588C20.1677 12.3459 20.0566 12.621 19.8597 12.8242C19.6626 13.0272 19.3958 13.1417 19.1172 13.1429H1.87918C1.60064 13.1417 1.33381 13.0272 1.13671 12.8242C0.939817 12.621 0.828657 12.3459 0.827546 12.0588V1.93691C0.829587 1.73852 0.884145 1.54435 0.985466 1.37562L9.17836 8.60902L9.22828 8.64767C9.60647 8.89406 10.0446 9.02472 10.492 9.02472C10.9393 9.02472 11.3776 8.89406 11.7556 8.64767L11.8055 8.60902L19.9984 1.37562C20.104 1.54301 20.163 1.73718 20.1688 1.93691L20.1689 12.0588Z"/>
</mask>
<path d="M20.36 0.501406C20.331 0.473476 20.2989 0.44899 20.2644 0.428519C19.9376 0.154571 19.5301 0.00344285 19.1089 0H1.8789C1.45765 0.00344343 1.05015 0.154571 0.72336 0.428519C0.688844 0.448989 0.656742 0.473475 0.627792 0.501406C0.2303 0.866412 0.00204276 1.38827 0 1.93692V12.0588C0 12.5728 0.19782 13.066 0.550025 13.4299C0.90224 13.7939 1.38029 13.9988 1.87891 14H19.1046C19.606 14.0034 20.0883 13.8004 20.444 13.436C20.8 13.0715 21 12.5759 21 12.0588V1.93692C20.9948 1.38636 20.7621 0.864105 20.36 0.501406ZM19.1129 0.857038C19.1738 0.850725 19.235 0.850725 19.2959 0.857038L11.2859 7.93617C11.0463 8.0873 10.7708 8.16727 10.49 8.16727C10.209 8.16727 9.93347 8.08731 9.69389 7.93617L1.69625 0.874179C1.75712 0.867866 1.81836 0.867866 1.87923 0.874179L19.1129 0.857038ZM20.1689 12.0588C20.1677 12.3459 20.0566 12.621 19.8597 12.8242C19.6626 13.0272 19.3958 13.1417 19.1172 13.1429H1.87918C1.60064 13.1417 1.33381 13.0272 1.13671 12.8242C0.939817 12.621 0.828657 12.3459 0.827546 12.0588V1.93691C0.829587 1.73852 0.884145 1.54435 0.985466 1.37562L9.17836 8.60902L9.22828 8.64767C9.60647 8.89406 10.0446 9.02472 10.492 9.02472C10.9393 9.02472 11.3776 8.89406 11.7556 8.64767L11.8055 8.60902L19.9984 1.37562C20.104 1.54301 20.163 1.73718 20.1688 1.93691L20.1689 12.0588Z" fill="#1B812C"/>
<path d="M20.36 0.501406L18.9713 1.94073L18.9955 1.96408L19.0205 1.9866L20.36 0.501406ZM20.2644 0.428519L18.9795 1.96121L19.1042 2.06571L19.2441 2.14869L20.2644 0.428519ZM19.1089 0L19.1252 -1.99993L19.117 -2H19.1089V0ZM1.8789 0V-2H1.87072L1.86255 -1.99993L1.8789 0ZM0.72336 0.428519L1.74354 2.14876L1.8835 2.06576L2.00821 1.96122L0.72336 0.428519ZM0.627792 0.501406L1.98052 1.97454L1.99869 1.95785L2.01645 1.94073L0.627792 0.501406ZM0 1.93692L-2 1.92948V1.93692H0ZM0.550025 13.4299L1.98741 12.0392L1.98709 12.0389L0.550025 13.4299ZM1.87891 14L1.8742 16H1.87891V14ZM19.1046 14L19.1183 12H19.1046V14ZM20.444 13.436L19.0132 12.0386L19.0128 12.039L20.444 13.436ZM21 1.93692H23V1.92748L22.9999 1.91805L21 1.93692ZM19.1129 0.857038L19.1149 2.85704L19.2174 2.85694L19.3193 2.84637L19.1129 0.857038ZM19.2959 0.857038L20.6204 2.35565L24.035 -0.662167L19.5022 -1.13229L19.2959 0.857038ZM11.2859 7.93617L12.353 9.62773L12.4895 9.54164L12.6104 9.43478L11.2859 7.93617ZM9.69389 7.93617L8.3701 9.43536L8.49071 9.54186L8.6268 9.62771L9.69389 7.93617ZM1.69625 0.874179L1.48991 -1.11515L-3.04549 -0.644714L0.372454 2.37337L1.69625 0.874179ZM1.87923 0.874179L1.6729 2.86351L1.77678 2.87428L1.88121 2.87418L1.87923 0.874179ZM20.1689 12.0588L22.1689 12.0665V12.0588L20.1689 12.0588ZM19.8597 12.8242L21.2946 14.2174L21.296 14.2159L19.8597 12.8242ZM19.1172 13.1429V15.1429L19.1255 15.1429L19.1172 13.1429ZM1.87918 13.1429L1.87094 15.1429H1.87918V13.1429ZM1.13671 12.8242L-0.299509 14.216L-0.298098 14.2175L1.13671 12.8242ZM0.827546 12.0588H-1.17247L-1.17244 12.0665L0.827546 12.0588ZM0.827546 1.93691L-1.17235 1.91633L-1.17245 1.92662V1.93691H0.827546ZM0.985466 1.37562L2.30916 -0.123658L0.507849 -1.71401L-0.729159 0.346026L0.985466 1.37562ZM9.17836 8.60902L7.85466 10.1083L7.90304 10.151L7.95407 10.1905L9.17836 8.60902ZM9.22828 8.64767L8.00399 10.2292L8.06834 10.279L8.13652 10.3234L9.22828 8.64767ZM11.7556 8.64767L12.8477 10.3231L12.9157 10.2788L12.9799 10.2292L11.7556 8.64767ZM11.8055 8.60902L13.0298 10.1905L13.0808 10.151L13.1292 10.1083L11.8055 8.60902ZM19.9984 1.37562L21.69 0.30857L20.4363 -1.67891L18.6747 -0.123658L19.9984 1.37562ZM20.1688 1.93691L22.1688 1.93689V1.9081L22.1679 1.87932L20.1688 1.93691ZM21.7486 -0.937914C21.6084 -1.07317 21.4528 -1.19197 21.2847 -1.29165L19.2441 2.14869C19.1451 2.08995 19.0536 2.02012 18.9713 1.94073L21.7486 -0.937914ZM21.5493 -1.10417C20.8715 -1.67236 20.0169 -1.99265 19.1252 -1.99993L19.0925 1.99993C19.0433 1.99953 19.0037 1.9815 18.9795 1.96121L21.5493 -1.10417ZM19.1089 -2H1.8789V2H19.1089V-2ZM1.86255 -1.99993C0.970816 -1.99264 0.116282 -1.67235 -0.561488 -1.10418L2.00821 1.96122C1.98403 1.98149 1.94449 1.99953 1.89525 1.99993L1.86255 -1.99993ZM-0.296819 -1.29172C-0.465074 -1.19194 -0.620758 -1.07308 -0.760862 -0.937913L2.01645 1.94073C1.93424 2.02004 1.84276 2.08992 1.74354 2.14876L-0.296819 -1.29172ZM-0.72494 -0.971725C-1.54063 -0.222704 -1.99591 0.833844 -1.99999 1.92948L1.99999 1.94437C1.99998 1.94502 1.99987 1.94747 1.99802 1.9517C1.99615 1.95597 1.99132 1.96462 1.98052 1.97454L-0.72494 -0.971725ZM-2 1.93692V12.0588H2V1.93692H-2ZM-2 12.0588C-2 13.0832 -1.60639 14.0777 -0.887043 14.8208L1.98709 12.0389C1.99502 12.0471 1.99815 12.0535 1.99915 12.056C2.00014 12.0585 2 12.0593 2 12.0588H-2ZM-0.887361 14.8205C-0.1656 15.5665 0.826595 15.9975 1.8742 16L1.88363 12C1.93398 12.0001 1.97008 12.0213 1.98741 12.0392L-0.887361 14.8205ZM1.87891 16H19.1046V12H1.87891V16ZM19.0909 15.9999C20.145 16.0071 21.1463 15.5798 21.8753 14.8329L19.0128 12.039C19.0303 12.021 19.0671 11.9997 19.1183 12L19.0909 15.9999ZM21.8749 14.8334C22.602 14.0889 23 13.0891 23 12.0588H19C19 12.0595 18.9998 12.0586 19.0009 12.056C19.002 12.0533 19.0052 12.0468 19.0132 12.0386L21.8749 14.8334ZM23 12.0588V1.93692H19V12.0588H23ZM22.9999 1.91805C22.9895 0.819128 22.5255 -0.238753 21.6995 -0.983784L19.0205 1.9866C19.0092 1.97641 19.0041 1.96743 19.0021 1.96301C19.0002 1.95865 19.0001 1.95623 19.0001 1.9558L22.9999 1.91805ZM19.3193 2.84637C19.2429 2.85428 19.1659 2.85428 19.0896 2.84637L19.5022 -1.13229C19.3042 -1.15283 19.1047 -1.15283 18.9066 -1.13229L19.3193 2.84637ZM17.9715 -0.64157L9.96146 6.43757L12.6104 9.43478L20.6204 2.35565L17.9715 -0.64157ZM10.2188 6.24462C10.296 6.19596 10.3899 6.16727 10.49 6.16727V10.1673C11.1516 10.1673 11.7967 9.97865 12.353 9.62773L10.2188 6.24462ZM10.49 6.16727C10.5898 6.16727 10.6837 6.19588 10.761 6.24463L8.6268 9.62771C9.18323 9.97873 9.82831 10.1673 10.49 10.1673V6.16727ZM11.0177 6.43699L3.02005 -0.625008L0.372454 2.37337L8.3701 9.43536L11.0177 6.43699ZM1.90259 2.86351C1.82626 2.87142 1.74921 2.87142 1.6729 2.86351L2.08555 -1.11515C1.8875 -1.13569 1.68797 -1.13569 1.48991 -1.11515L1.90259 2.86351ZM1.88121 2.87418L19.1149 2.85704L19.1109 -1.14296L1.87724 -1.12582L1.88121 2.87418ZM18.1689 12.051C18.1697 11.8295 18.2549 11.6063 18.4234 11.4324L21.296 14.2159C21.8582 13.6357 22.1658 12.8623 22.1688 12.0665L18.1689 12.051ZM18.4248 11.431C18.5955 11.2551 18.84 11.144 19.109 11.1429L19.1255 15.1429C19.9515 15.1395 20.7297 14.7992 21.2946 14.2174L18.4248 11.431ZM19.1172 11.1429H1.87918V15.1429H19.1172V11.1429ZM1.88742 11.1429C2.15648 11.144 2.40091 11.2552 2.57151 11.4309L-0.298098 14.2175C0.266707 14.7991 1.0448 15.1395 1.87094 15.1429L1.88742 11.1429ZM2.57292 11.4323C2.7415 11.6063 2.82667 11.8296 2.82753 12.051L-1.17244 12.0665C-1.16936 12.8622 -0.861867 13.6358 -0.299508 14.216L2.57292 11.4323ZM2.82755 12.0588V1.93691H-1.17245V12.0588H2.82755ZM2.82744 1.95748C2.82586 2.11107 2.78383 2.26576 2.70009 2.40521L-0.729159 0.346026C-1.01554 0.822947 -1.16669 1.36598 -1.17235 1.91633L2.82744 1.95748ZM-0.338228 2.8749L7.85466 10.1083L10.5021 7.10975L2.30916 -0.123658L-0.338228 2.8749ZM7.95407 10.1905L8.00399 10.2292L10.4526 7.06617L10.4026 7.02753L7.95407 10.1905ZM8.13652 10.3234C8.83671 10.7796 9.65364 11.0247 10.492 11.0247V7.02472C10.4356 7.02472 10.3762 7.00854 10.32 6.97194L8.13652 10.3234ZM10.492 11.0247C11.3301 11.0247 12.1474 10.7797 12.8477 10.3231L10.6635 6.97218C10.6078 7.00847 10.5484 7.02472 10.492 7.02472V11.0247ZM12.9799 10.2292L13.0298 10.1905L10.5812 7.02752L10.5313 7.06617L12.9799 10.2292ZM13.1292 10.1083L21.3221 2.8749L18.6747 -0.123658L10.4818 7.10975L13.1292 10.1083ZM18.3068 2.44267C18.2199 2.30481 18.1741 2.14991 18.1696 1.99449L22.1679 1.87932C22.152 1.32446 21.9881 0.781218 21.69 0.30857L18.3068 2.44267ZM18.1688 1.93692L18.1689 12.0588L22.1689 12.0588L22.1688 1.93689L18.1688 1.93692Z" fill="#1B812C" mask="url(#path-1-inside-1_739_38)"/>
</svg>
