<svg width="17" height="21" viewBox="0 0 17 21" fill="none" xmlns="http://www.w3.org/2000/svg">
<path d="M14.6407 0.525214C14.5613 0.31855 14.3805 0.141075 14.1501 0.116283C13.9196 0.0914886 13.698 0.172414 13.5677 0.352684C13.5488 0.375516 11.8059 2.63746 8.18452 3.27876L8.14322 3.28195C8.08135 3.28673 6.79927 3.59853 5.4185 4.47103C3.54308 5.63696 2.36981 7.25926 2.02917 9.15769C1.83339 10.3003 1.954 11.5037 2.38059 12.6406C2.96077 14.1275 3.88588 15.2686 5.08717 15.9843C4.93968 16.2085 4.67722 16.5478 4.35462 16.9132L2.23077 18.5877C1.79451 18.8342 1.33412 19.0398 0.808211 19.2081C0.584806 19.268 0.480365 19.5101 0.540966 19.7394C0.598054 19.9264 0.773626 20.0405 0.959259 20.0261L1.06243 20.0182C3.8736 19.1202 5.38656 17.0888 5.86498 16.3498C6.31581 16.5278 6.78351 16.6618 7.28744 16.7292C7.81192 16.7951 8.35349 16.8171 8.86919 16.7773C10.6432 16.6403 12.3423 15.8496 13.6002 14.4974C15.6254 12.3836 17.4376 8.20151 14.6409 0.525313L14.6407 0.525214ZM13.7506 3.80624C13.7423 3.95587 13.5302 7.65253 10.1786 9.29414C10.1581 9.29573 10.1598 9.31681 10.1391 9.31841C10.0995 9.34268 9.65627 9.50468 9.11025 9.9297C8.4268 10.4505 7.55171 11.4116 7.01788 12.9845C6.89973 13.3127 6.80583 13.6817 6.73439 14.0701C6.70889 14.2635 6.55437 14.403 6.36874 14.4174C6.32744 14.4206 6.28628 14.4237 6.26381 14.4042C6.03163 14.3584 5.88858 14.1354 5.93115 13.8981C6.69293 9.81854 9.5224 8.64272 9.84368 8.51154C9.98289 8.43698 10.1014 8.36402 10.2404 8.28948C11.982 7.26149 12.6066 5.53256 12.8147 4.53798C12.9016 4.08444 12.9389 3.78373 12.9354 3.74157C12.9367 3.50745 13.129 3.32238 13.3594 3.34719C13.5899 3.37183 13.7725 3.57052 13.7505 3.80624L13.7506 3.80624Z" fill="#9BC593"/>
</svg>
